<?xml version="1.0" encoding="utf-8"?>
<!-- Generator: Adobe Illustrator 17.0.0, SVG Export Plug-In . SVG Version: 6.00 Build 0)  -->
<!DOCTYPE svg PUBLIC "-//W3C//DTD SVG 1.1//EN" "http://www.w3.org/Graphics/SVG/1.1/DTD/svg11.dtd">
<svg version="1.1" id="Layer_1" xmlns="http://www.w3.org/2000/svg" xmlns:xlink="http://www.w3.org/1999/xlink" x="0px" y="0px"
	 width="129.866px" height="140.283px" viewBox="0 0 129.866 140.283" enable-background="new 0 0 129.866 140.283"
	 xml:space="preserve">
<g>
	<path fill="#010202" d="M129.866,0v55.866c0,37.567-9.91,49.025-16.472,56.606c-12.364,14.268-36.157,23.571-45.843,26.921
		l-2.613,0.89l-2.662-0.898c-9.654-3.342-33.439-12.64-45.812-26.919C9.901,104.884,0,93.427,0,55.865V0H129.866z M6.689,55.866
		c0,35.096,8.935,45.434,14.849,52.272c11.621,13.413,35.797,22.506,42.934,24.972l0.456,0.158l0.464-0.158
		c7.129-2.466,31.306-11.556,42.934-24.972c5.914-6.839,14.849-17.171,14.849-52.272V6.642H6.689V55.866z"/>
	<path fill="#00539B" d="M120.371,52.098v-0.785c-10.607,0-10.286-5.107-18.263-5.107c-7.96,0-8.024,5.107-18.645,5.107
		c-10.614,0-10.286-5.107-18.278-5.107c-7.961,0-8.04,5.107-18.638,5.107c-10.613,0-10.286-5.107-18.27-5.107
		c-7.968,0-8.112,5.107-18.743,5.107v0.785v0.223H9.503v3.943c0,20.208,3.133,31.753,6.858,39.163
		c-0.12-0.189-0.248-0.366-0.367-0.56c2.486,5.148,5.266,8.362,7.577,11.018c11.061,12.74,34.079,21.375,40.879,23.719l0.433,0.146
		l0.439-0.146c6.793-2.344,29.811-10.976,40.88-23.719c1.231-1.416,2.598-3.002,3.98-4.938c0.119-0.178,0.249-0.361,0.375-0.543
		c0.176-0.262,0.359-0.528,0.543-0.801c0.209-0.33,0.426-0.665,0.64-1.012c0.063-0.099,0.12-0.19,0.184-0.29
		c0.296-0.489,0.583-1,0.879-1.534c0.025-0.042,0.048-0.086,0.072-0.13c3.996-7.346,7.497-19.025,7.497-40.373v-0.657h-0.009
		L120.371,52.098z"/>
	<path fill="#FFFFFF" d="M61.699,63.845c-1.223-1.264-2.924-1.906-5.059-1.906H35.949v35.634h20.723
		c5.715,0,6.243,4.049,6.258,4.239l0.752-0.017V69.418C63.681,69.296,63.81,66.041,61.699,63.845"/>
	<path fill="#FFFFFF" d="M93.933,61.938h-20.7c-2.134,0-3.836,0.643-5.058,1.907c-2.111,2.193-1.983,5.452-1.983,5.589v32.362
		l0.751,0.016c0.024-0.19,0.544-4.239,6.258-4.239h20.731V61.938z"/>
	<path fill="#FDB813" d="M99.128,63.002h-2.311v38.039h-26.03l-0.296,0.704c-0.055,0.118-1.431,3.127-5.435,3.127
		c-3.82,0-5.467-3.1-5.539-3.232l-0.32-0.622l-0.712-0.007H33.056V62.93h-2.31v40.379h27.093c0.839,1.242,3.101,3.858,7.217,3.858
		c4.276,0,6.394-2.554,7.184-3.83h26.887V63.002z"/>
	<path fill="#FDB813" d="M28.276,46.207c7.985,0,7.657,5.107,18.27,5.107c10.599,0,10.678-5.107,18.638-5.107
		c7.993,0,7.664,5.107,18.278,5.107c10.622,0,10.678-5.107,18.645-5.107c7.977,0,7.656,5.107,18.262,5.107l-0.008,0.785h0.008V9.438
		H9.495v42.661h0.039v-0.785C20.165,51.314,20.308,46.207,28.276,46.207"/>
	<path fill="#EF4135" d="M115.127,26.892c-1.486,3.226-2.389,3.98-3.86,4.456c-1.486,0.481-3.204,0.13-4.986-1.007
		c-0.208-0.132-0.384-0.254-0.536-0.359l-0.041-0.028c-0.551-0.388-0.838-0.573-1.294-0.425c-0.328,0.106-0.599,0.329-0.799,0.648
		c-0.017,0.361,0.072,0.69,0.264,0.949c0.296,0.403,0.623,0.408,1.302,0.419c0.193,0.003,0.423,0.008,0.687,0.022
		c1.479,0.079,3.477,0.512,4.635,2.097c0.904,1.244,1.192,2.384,0.488,5.86c-0.2,1.001-0.32,1.653-0.191,2.304
		c0.008,0.055-0.016,0.111-0.064,0.141c-0.024,0.022-0.056,0.029-0.081,0.029c-0.032,0-0.055-0.003-0.071-0.018
		c-0.576-0.312-1.247-0.406-2.263-0.524c-3.548-0.414-4.556-1.033-5.459-2.271c-1.167-1.591-0.959-3.613-0.575-5.031
		c0.064-0.245,0.128-0.457,0.192-0.659c0.192-0.615,0.295-0.957,0-1.358c-0.201-0.272-0.496-0.464-0.864-0.552
		c-0.352,0.094-0.639,0.281-0.831,0.539c-0.296,0.405-0.192,0.723,0.008,1.385c0.064,0.183,0.119,0.391,0.191,0.636
		c0.376,1.417,0.583,3.439-0.575,5.024c-0.912,1.24-1.918,1.867-5.459,2.275c-1.023,0.12-1.687,0.214-2.263,0.524
		c-0.023,0.012-0.048,0.018-0.071,0.018c-0.081-0.008-0.16-0.064-0.16-0.146c0-0.024,0.008-0.049,0.024-0.069
		c0.103-0.634-0.009-1.278-0.209-2.256c-0.702-3.48-0.415-4.621,0.489-5.863c1.167-1.589,3.165-2.016,4.635-2.097
		c0.264-0.015,0.488-0.018,0.695-0.022c0.671-0.011,1.006-0.018,1.294-0.42c0.201-0.269,0.296-0.612,0.265-0.983
		c-0.192-0.304-0.465-0.515-0.768-0.619c-0.456-0.146-0.735,0.024-1.303,0.418c-0.168,0.115-0.351,0.25-0.576,0.389
		c-1.262,0.811-2.477,1.219-3.629,1.219c-0.472,0-0.926-0.07-1.358-0.209c-1.471-0.477-2.374-1.231-3.868-4.454
		c-0.424-0.93-0.719-1.524-1.199-1.977c-0.041-0.041-0.056-0.099-0.041-0.151c0.016-0.055,0.065-0.092,0.128-0.099
		c0.655-0.086,1.238-0.395,2.141-0.897c2.047-1.145,3.261-1.592,4.349-1.592c0.44,0,0.887,0.077,1.406,0.245
		c1.879,0.607,2.91,2.364,3.445,3.729c0.088,0.245,0.169,0.457,0.224,0.646c0.225,0.63,0.328,0.947,0.808,1.102
		c0.319,0.106,0.679,0.084,1.022-0.06c0.232-0.283,0.352-0.599,0.352-0.921c0-0.5-0.264-0.698-0.8-1.098l-0.048-0.034
		c-0.151-0.112-0.319-0.237-0.504-0.386c-1.142-0.928-2.509-2.444-2.509-4.406c0-1.528,0.447-2.617,3.077-5.025
		c0.752-0.693,1.231-1.154,1.519-1.746c0.024-0.053,0.072-0.085,0.127-0.085c0.056,0,0.112,0.032,0.135,0.085
		c0.289,0.592,0.76,1.054,1.519,1.746c2.629,2.405,3.069,3.495,3.069,5.025c0,1.961-1.358,3.48-2.501,4.406
		c-0.209,0.159-0.383,0.295-0.552,0.418c-0.536,0.4-0.808,0.601-0.808,1.101c0,0.34,0.136,0.667,0.376,0.949
		c0.343,0.129,0.687,0.147,0.991,0.051c0.48-0.154,0.583-0.471,0.799-1.105l0.024-0.074c0.064-0.171,0.128-0.356,0.208-0.573
		c0.536-1.365,1.566-3.122,3.446-3.728c0.511-0.163,0.966-0.242,1.414-0.242c1.08,0,2.303,0.444,4.348,1.588
		c0.888,0.504,1.479,0.815,2.134,0.896c0.064,0.008,0.112,0.048,0.128,0.103c0.015,0.055,0,0.114-0.04,0.151
		C115.847,25.37,115.56,25.964,115.127,26.892"/>
	<path fill="#EF4135" d="M78.715,26.892c-1.486,3.226-2.397,3.98-3.86,4.456c-1.486,0.482-3.205,0.132-4.995-1.007
		c-0.216-0.143-0.399-0.27-0.575-0.392c-0.552-0.383-0.831-0.568-1.295-0.42c-0.32,0.106-0.591,0.329-0.791,0.648
		c-0.024,0.361,0.073,0.69,0.264,0.949c0.288,0.403,0.623,0.408,1.294,0.419c0.2,0.003,0.432,0.008,0.695,0.022
		c1.471,0.079,3.469,0.512,4.628,2.097c0.911,1.244,1.19,2.384,0.496,5.86c-0.208,1.002-0.32,1.658-0.2,2.304
		c0.016,0.055-0.008,0.111-0.056,0.141c-0.032,0.022-0.056,0.029-0.087,0.029c-0.026,0-0.049-0.003-0.073-0.018
		c-0.575-0.312-1.239-0.406-2.261-0.524c-3.549-0.414-4.549-1.033-5.459-2.271c-1.16-1.591-0.952-3.613-0.576-5.031
		c0.064-0.234,0.128-0.436,0.176-0.615l0.016-0.045c0.2-0.637,0.296-0.959,0.008-1.358c-0.2-0.272-0.495-0.464-0.863-0.552
		c-0.351,0.094-0.639,0.281-0.83,0.539c-0.297,0.405-0.193,0.724,0,1.362l0.023,0.047c0.049,0.178,0.112,0.379,0.176,0.612
		c0.368,1.417,0.576,3.441-0.583,5.024c-0.91,1.24-1.91,1.867-5.451,2.275c-1.031,0.12-1.694,0.214-2.27,0.524
		c-0.024,0.012-0.047,0.018-0.072,0.018c-0.088-0.008-0.152-0.064-0.152-0.146c0-0.024,0.009-0.049,0.015-0.069
		c0.112-0.636-0.006-1.278-0.199-2.256c-0.711-3.48-0.423-4.621,0.488-5.863c1.159-1.589,3.157-2.016,4.636-2.097
		c0.263-0.015,0.487-0.018,0.686-0.022c0.671-0.011,1.007-0.018,1.304-0.42c0.2-0.269,0.287-0.61,0.263-0.983
		c-0.2-0.304-0.464-0.518-0.775-0.617c-0.456-0.148-0.728,0.022-1.303,0.416c-0.16,0.115-0.351,0.25-0.567,0.389
		c-1.262,0.811-2.486,1.219-3.628,1.219c-0.472,0-0.927-0.07-1.359-0.209c-1.471-0.477-2.381-1.232-3.868-4.454
		c-0.432-0.927-0.719-1.524-1.199-1.977c-0.047-0.041-0.056-0.099-0.04-0.151c0.016-0.055,0.064-0.092,0.12-0.099
		c0.655-0.086,1.239-0.395,2.142-0.897c2.046-1.145,3.268-1.592,4.348-1.592c0.448,0,0.895,0.077,1.407,0.245
		c1.886,0.607,2.908,2.364,3.445,3.729c0.08,0.199,0.143,0.377,0.2,0.537l0.032,0.11c0.224,0.628,0.328,0.948,0.807,1.101
		c0.319,0.106,0.671,0.084,1.023-0.06c0.233-0.283,0.353-0.599,0.353-0.921c0-0.501-0.289-0.712-0.808-1.098l-0.088-0.064
		c-0.135-0.105-0.288-0.221-0.463-0.356c-1.134-0.928-2.501-2.447-2.501-4.406c0-1.529,0.439-2.617,3.068-5.025
		c0.76-0.689,1.231-1.152,1.518-1.746c0.024-0.053,0.08-0.085,0.136-0.085c0.056,0,0.104,0.034,0.128,0.085
		c0.287,0.592,0.768,1.054,1.526,1.746c2.621,2.405,3.069,3.495,3.069,5.025c0,1.961-1.367,3.48-2.511,4.406
		c-0.167,0.135-0.319,0.251-0.455,0.353l-0.088,0.065c-0.536,0.4-0.807,0.601-0.807,1.101c0,0.34,0.128,0.667,0.367,0.949
		c0.344,0.129,0.687,0.147,0.999,0.051c0.473-0.155,0.591-0.493,0.799-1.105c0.064-0.186,0.136-0.4,0.232-0.647
		c0.536-1.365,1.566-3.122,3.437-3.728c0.512-0.163,0.967-0.242,1.415-0.242c1.079,0,2.302,0.444,4.348,1.59
		c0.895,0.501,1.479,0.812,2.142,0.893c0.057,0.008,0.104,0.048,0.121,0.103c0.015,0.055,0,0.114-0.041,0.153
		C79.434,25.367,79.147,25.962,78.715,26.892"/>
	<path fill="#EF4135" d="M42.295,26.892c-1.486,3.226-2.389,3.98-3.86,4.456c-1.486,0.482-3.205,0.13-4.987-1.007
		c-0.216-0.143-0.407-0.27-0.575-0.388c-0.552-0.387-0.84-0.57-1.294-0.424c-0.328,0.106-0.599,0.329-0.791,0.648
		c-0.025,0.361,0.063,0.69,0.256,0.949c0.296,0.403,0.631,0.408,1.302,0.419c0.2,0.003,0.422,0.008,0.686,0.022
		c1.478,0.079,3.477,0.512,4.636,2.097c0.902,1.244,1.19,2.384,0.487,5.86c-0.2,1.001-0.32,1.653-0.191,2.304
		c0.007,0.055-0.016,0.111-0.064,0.141c-0.024,0.022-0.056,0.029-0.08,0.029c-0.023,0-0.056-0.003-0.071-0.018
		c-0.584-0.312-1.247-0.406-2.263-0.524c-3.548-0.414-4.548-1.033-5.459-2.271c-1.159-1.591-0.959-3.613-0.575-5.031
		c0.064-0.231,0.12-0.434,0.175-0.61l0.016-0.049c0.192-0.615,0.296-0.957,0-1.358c-0.191-0.272-0.496-0.464-0.863-0.552
		c-0.344,0.094-0.638,0.281-0.823,0.539c-0.304,0.405-0.2,0.723,0.007,1.385c0.057,0.183,0.12,0.391,0.185,0.636
		c0.375,1.417,0.583,3.441-0.576,5.024c-0.911,1.24-1.91,1.867-5.459,2.275c-1.023,0.12-1.686,0.214-2.262,0.524
		c-0.023,0.012-0.048,0.018-0.072,0.018h-0.008c-0.079,0-0.143-0.067-0.143-0.146c0-0.024,0-0.047,0.015-0.069
		c0.112-0.634-0.008-1.278-0.208-2.256c-0.702-3.48-0.406-4.621,0.497-5.863c1.159-1.589,3.156-2.016,4.628-2.097
		c0.264-0.015,0.495-0.018,0.695-0.022c0.671-0.011,0.998-0.018,1.302-0.42c0.2-0.272,0.288-0.612,0.256-0.983
		c-0.192-0.304-0.456-0.515-0.768-0.619c-0.454-0.146-0.735,0.024-1.302,0.418c-0.169,0.115-0.351,0.25-0.567,0.389
		c-1.271,0.811-2.486,1.219-3.628,1.219H20.54c-0.464,0-0.927-0.07-1.359-0.209c-1.47-0.477-2.374-1.231-3.86-4.454
		c-0.43-0.93-0.728-1.524-1.207-1.977c-0.04-0.041-0.056-0.099-0.04-0.151c0.024-0.055,0.072-0.092,0.121-0.099
		c0.663-0.086,1.246-0.395,2.149-0.897c2.047-1.145,3.269-1.592,4.348-1.592c0.441,0,0.895,0.077,1.407,0.245
		c1.878,0.607,2.909,2.364,3.445,3.729c0.088,0.245,0.168,0.457,0.232,0.646c0.217,0.63,0.328,0.947,0.8,1.102
		c0.319,0.106,0.678,0.084,1.023-0.06c0.232-0.283,0.36-0.601,0.36-0.921c0-0.5-0.272-0.698-0.807-1.098l-0.049-0.034
		c-0.143-0.112-0.319-0.237-0.504-0.386c-1.143-0.928-2.502-2.444-2.502-4.406c0-1.528,0.439-2.617,3.069-5.025
		c0.752-0.692,1.231-1.153,1.519-1.746c0.023-0.053,0.072-0.085,0.135-0.085c0.055,0,0.104,0.032,0.128,0.085
		c0.287,0.592,0.767,1.054,1.526,1.746c2.621,2.405,3.061,3.495,3.061,5.025c0,1.961-1.359,3.48-2.503,4.406
		c-0.192,0.155-0.367,0.289-0.551,0.418c-0.536,0.4-0.8,0.601-0.8,1.101c0,0.34,0.128,0.669,0.368,0.949
		c0.343,0.129,0.687,0.147,0.991,0.051c0.48-0.154,0.583-0.473,0.799-1.105l0.032-0.073c0.056-0.169,0.12-0.356,0.208-0.575
		c0.528-1.365,1.558-3.122,3.445-3.728c0.504-0.163,0.959-0.242,1.399-0.242c1.088,0,2.31,0.444,4.356,1.588
		c0.896,0.504,1.486,0.815,2.142,0.896c0.056,0.008,0.104,0.048,0.12,0.103c0.015,0.055,0,0.114-0.041,0.151
		C43.022,25.361,42.727,25.962,42.295,26.892"/>
</g>
</svg>
