<?xml version="1.0" encoding="utf-8"?>
<!-- Generator: Adobe Illustrator 17.0.0, SVG Export Plug-In . SVG Version: 6.00 Build 0)  -->
<!DOCTYPE svg PUBLIC "-//W3C//DTD SVG 1.1//EN" "http://www.w3.org/Graphics/SVG/1.1/DTD/svg11.dtd">
<svg version="1.1" id="Layer_1" xmlns="http://www.w3.org/2000/svg" xmlns:xlink="http://www.w3.org/1999/xlink" x="0px" y="0px"
	 width="41.944px" height="45.597px" viewBox="0 0 41.944 45.597" enable-background="new 0 0 41.944 45.597" xml:space="preserve">
<g>
	<path fill="#FFFFFF" d="M41.944,0v18.159c0,12.21-3.201,15.934-5.321,18.397c-3.993,4.638-11.677,7.662-14.805,8.751l-0.845,0.29
		l-0.861-0.293c-3.117-1.085-10.801-4.108-14.794-8.749C3.198,34.091,0,30.367,0,18.159V0H41.944z M2.159,18.159
		c0,11.407,2.886,14.767,4.797,16.989c3.753,4.36,11.561,7.314,13.866,8.117l0.148,0.051l0.148-0.051
		c2.305-0.803,10.114-3.756,13.869-8.117c1.91-2.222,4.797-5.581,4.797-16.989V2.16H2.159V18.159z"/>
	<path fill="#FFFFFF" d="M19.926,20.752c-0.392-0.411-0.943-0.62-1.633-0.62h-6.684v11.581h6.695c1.845,0,2.014,1.317,2.021,1.379
		l0.243-0.005V22.564C20.569,22.524,20.608,21.466,19.926,20.752"/>
	<path fill="#FFFFFF" d="M30.336,20.132h-6.683c-0.691,0-1.241,0.208-1.634,0.62c-0.683,0.713-0.642,1.771-0.64,1.817v10.517
		l0.243,0.006c0.006-0.062,0.174-1.377,2.021-1.377h6.693V20.132z"/>
	<path fill="#FFFFFF" d="M32.015,20.478h-0.746v12.364h-8.407l-0.097,0.228c-0.015,0.038-0.46,1.016-1.755,1.016
		c-1.232,0-1.765-1.007-1.787-1.05l-0.105-0.203l-0.229-0.002h-8.214V20.455H9.929v13.124h8.75c0.273,0.404,1.005,1.254,2.331,1.254
		c1.381,0,2.064-0.83,2.322-1.245h8.683V20.478z"/>
	<path fill="#FFFFFF" d="M3.068,3.069v13.865H3.08v-0.255c3.433,0,3.479-1.659,6.052-1.659c2.579,0,2.473,1.659,5.901,1.659
		c3.424,0,3.45-1.659,6.021-1.659c2.58,0,2.474,1.659,5.904,1.659c3.428,0,3.449-1.659,6.022-1.659c2.575,0,2.471,1.659,5.897,1.659
		l-0.002,0.255h0.002V3.069H3.068z M14.05,8.099c-0.154,0.145-0.249,0.34-0.389,0.642c-0.48,1.048-0.773,1.294-1.246,1.449
		c-0.482,0.156-1.037,0.042-1.611-0.328c-0.071-0.046-0.132-0.088-0.186-0.126c-0.18-0.126-0.272-0.185-0.419-0.137
		c-0.106,0.034-0.195,0.106-0.257,0.21c-0.006,0.118,0.023,0.224,0.084,0.308c0.095,0.131,0.203,0.133,0.421,0.137
		c0.063,0.001,0.137,0.003,0.222,0.007c0.477,0.026,1.122,0.166,1.496,0.681c0.294,0.404,0.386,0.775,0.159,1.905
		c-0.065,0.325-0.102,0.537-0.063,0.749c0.004,0.017-0.004,0.036-0.02,0.046c-0.007,0.007-0.017,0.009-0.027,0.009
		c-0.008,0-0.016-0.001-0.023-0.006c-0.187-0.101-0.401-0.132-0.731-0.17c-1.145-0.134-1.469-0.336-1.762-0.739
		c-0.376-0.516-0.309-1.174-0.185-1.634c0.02-0.076,0.038-0.142,0.056-0.199l0.005-0.015c0.063-0.201,0.096-0.312,0-0.442
		c-0.062-0.088-0.158-0.151-0.278-0.18c-0.113,0.031-0.206,0.092-0.268,0.176c-0.096,0.131-0.063,0.234,0.003,0.45
		c0.019,0.058,0.041,0.127,0.061,0.207c0.121,0.46,0.187,1.117-0.187,1.632c-0.292,0.404-0.618,0.607-1.762,0.74
		c-0.332,0.038-0.545,0.069-0.731,0.171c-0.006,0.003-0.014,0.005-0.023,0.005H6.387c-0.026,0-0.047-0.022-0.047-0.047
		c0-0.009,0.001-0.017,0.005-0.022c0.035-0.207-0.002-0.417-0.067-0.734c-0.226-1.131-0.133-1.502,0.159-1.906
		c0.376-0.515,1.02-0.655,1.496-0.681c0.085-0.005,0.159-0.006,0.224-0.007c0.216-0.004,0.324-0.006,0.42-0.136
		c0.064-0.089,0.093-0.199,0.083-0.32C8.598,9.696,8.512,9.627,8.411,9.593c-0.148-0.047-0.236,0.008-0.42,0.136
		C7.938,9.766,7.878,9.811,7.807,9.856c-0.41,0.263-0.803,0.395-1.173,0.395H6.634c-0.151,0-0.297-0.022-0.438-0.068
		c-0.475-0.155-0.768-0.4-1.248-1.447C4.809,8.433,4.713,8.24,4.559,8.093C4.545,8.081,4.54,8.062,4.547,8.044
		c0.006-0.018,0.021-0.03,0.039-0.032c0.213-0.028,0.402-0.129,0.692-0.291c0.663-0.373,1.056-0.518,1.405-0.518
		c0.143,0,0.289,0.025,0.456,0.079c0.606,0.198,0.938,0.769,1.11,1.212c0.03,0.08,0.055,0.15,0.076,0.21
		c0.07,0.205,0.105,0.308,0.259,0.359c0.103,0.034,0.219,0.027,0.33-0.02c0.075-0.091,0.114-0.196,0.114-0.3
		c0-0.162-0.087-0.226-0.259-0.356L8.752,8.375C8.704,8.34,8.651,8.298,8.591,8.25C8.222,7.949,7.781,7.457,7.781,6.819
		c0-0.497,0.144-0.851,0.991-1.634c0.243-0.225,0.4-0.374,0.49-0.567C9.269,4.601,9.287,4.59,9.307,4.59
		c0.019,0,0.035,0.011,0.043,0.028C9.443,4.811,9.595,4.96,9.842,5.185c0.848,0.782,0.99,1.136,0.99,1.634
		c0,0.638-0.441,1.13-0.809,1.431C9.96,8.301,9.903,8.344,9.845,8.387c-0.173,0.129-0.26,0.194-0.26,0.356
		c0,0.111,0.042,0.218,0.121,0.309c0.109,0.042,0.22,0.048,0.32,0.018c0.153-0.05,0.188-0.155,0.258-0.36l0.009-0.024
		c0.019-0.054,0.04-0.116,0.066-0.186c0.173-0.444,0.506-1.015,1.113-1.212c0.165-0.054,0.31-0.079,0.454-0.079
		c0.35,0,0.744,0.145,1.405,0.517c0.29,0.163,0.481,0.264,0.692,0.29c0.018,0.003,0.033,0.015,0.038,0.034
		C14.068,8.068,14.063,8.087,14.05,8.099 M25.811,8.1c-0.154,0.145-0.248,0.339-0.387,0.641c-0.482,1.048-0.775,1.294-1.247,1.449
		c-0.482,0.156-1.037,0.042-1.614-0.328c-0.068-0.046-0.129-0.088-0.185-0.127c-0.179-0.125-0.269-0.185-0.418-0.136
		c-0.104,0.034-0.193,0.106-0.256,0.21c-0.007,0.118,0.022,0.224,0.083,0.308c0.094,0.131,0.203,0.133,0.421,0.137
		c0.064,0.001,0.137,0.003,0.223,0.007c0.476,0.026,1.122,0.166,1.496,0.681c0.292,0.404,0.385,0.775,0.159,1.905
		c-0.067,0.326-0.104,0.539-0.063,0.749c0.003,0.017-0.004,0.036-0.019,0.046c-0.01,0.007-0.019,0.009-0.029,0.009
		c-0.007,0-0.014-0.001-0.022-0.006c-0.187-0.101-0.401-0.132-0.731-0.17c-1.146-0.134-1.47-0.336-1.762-0.739
		c-0.376-0.516-0.309-1.174-0.187-1.634c0.02-0.077,0.041-0.143,0.057-0.201l0.004-0.013c0.065-0.208,0.097-0.313,0.002-0.442
		c-0.063-0.088-0.16-0.151-0.278-0.18c-0.113,0.031-0.207,0.092-0.269,0.176c-0.095,0.131-0.062,0.235,0.002,0.442l0.006,0.015
		c0.017,0.058,0.036,0.123,0.056,0.2c0.12,0.46,0.187,1.117-0.187,1.632c-0.293,0.404-0.616,0.607-1.761,0.74
		c-0.331,0.038-0.546,0.069-0.731,0.171c-0.008,0.003-0.016,0.005-0.026,0.005c-0.028-0.003-0.048-0.021-0.048-0.047
		c0-0.009,0.003-0.017,0.007-0.022c0.035-0.208-0.003-0.417-0.067-0.734c-0.227-1.131-0.135-1.502,0.16-1.906
		c0.374-0.515,1.019-0.655,1.495-0.681c0.085-0.005,0.158-0.006,0.222-0.007c0.218-0.004,0.325-0.006,0.421-0.136
		c0.065-0.088,0.093-0.199,0.084-0.32c-0.062-0.098-0.15-0.168-0.249-0.201c-0.146-0.047-0.236,0.008-0.42,0.136
		c-0.052,0.037-0.114,0.082-0.184,0.127c-0.409,0.263-0.802,0.395-1.174,0.395c-0.15,0-0.298-0.022-0.439-0.068
		c-0.474-0.155-0.768-0.4-1.247-1.447c-0.139-0.301-0.233-0.496-0.388-0.643c-0.014-0.012-0.019-0.031-0.012-0.049
		c0.005-0.018,0.02-0.03,0.038-0.032c0.212-0.028,0.402-0.129,0.692-0.291c0.661-0.373,1.056-0.518,1.405-0.518
		c0.143,0,0.288,0.025,0.455,0.079c0.608,0.198,0.94,0.769,1.112,1.212c0.025,0.065,0.044,0.123,0.064,0.175l0.011,0.036
		c0.07,0.204,0.106,0.308,0.26,0.358c0.102,0.034,0.218,0.027,0.33-0.02c0.074-0.091,0.114-0.195,0.114-0.3
		c0-0.162-0.093-0.23-0.262-0.356L20.5,8.367c-0.043-0.035-0.093-0.072-0.148-0.117c-0.368-0.301-0.809-0.795-0.809-1.432
		c0-0.497,0.143-0.85,0.991-1.633c0.244-0.224,0.4-0.374,0.492-0.567c0.007-0.017,0.024-0.028,0.042-0.028
		c0.019,0,0.036,0.011,0.043,0.028c0.092,0.193,0.248,0.342,0.492,0.567c0.847,0.782,0.991,1.135,0.991,1.633
		c0,0.639-0.44,1.131-0.81,1.432c-0.053,0.045-0.103,0.082-0.148,0.116l-0.028,0.021c-0.174,0.129-0.261,0.194-0.261,0.356
		c0,0.111,0.042,0.217,0.12,0.309c0.111,0.042,0.223,0.048,0.32,0.018c0.155-0.051,0.192-0.161,0.259-0.36
		c0.021-0.06,0.045-0.13,0.076-0.21c0.172-0.444,0.505-1.015,1.109-1.212c0.167-0.054,0.313-0.079,0.458-0.079
		c0.348,0,0.743,0.145,1.404,0.517c0.289,0.163,0.478,0.264,0.692,0.29c0.017,0.003,0.033,0.015,0.039,0.034
		C25.829,8.068,25.823,8.087,25.811,8.1 M37.571,8.099c-0.156,0.147-0.249,0.341-0.387,0.642c-0.482,1.048-0.774,1.294-1.248,1.449
		c-0.482,0.156-1.036,0.042-1.61-0.328c-0.067-0.043-0.123-0.082-0.173-0.117L34.14,9.736c-0.18-0.126-0.271-0.186-0.419-0.137
		c-0.105,0.034-0.193,0.106-0.257,0.21c-0.006,0.118,0.022,0.224,0.084,0.308c0.095,0.131,0.203,0.133,0.421,0.137
		c0.064,0.001,0.137,0.003,0.222,0.007c0.477,0.026,1.121,0.166,1.497,0.681c0.293,0.404,0.385,0.775,0.157,1.905
		c-0.065,0.325-0.101,0.537-0.062,0.749c0.004,0.017-0.004,0.036-0.02,0.046c-0.007,0.007-0.018,0.009-0.026,0.009
		c-0.009,0-0.017-0.001-0.023-0.006c-0.186-0.101-0.402-0.132-0.731-0.17c-1.146-0.134-1.47-0.336-1.763-0.739
		c-0.376-0.516-0.308-1.174-0.186-1.634c0.021-0.081,0.043-0.149,0.063-0.214c0.062-0.201,0.095-0.312,0-0.442
		c-0.064-0.088-0.16-0.151-0.279-0.18c-0.113,0.031-0.208,0.092-0.268,0.176c-0.096,0.131-0.064,0.234,0.003,0.45
		c0.019,0.058,0.039,0.127,0.061,0.207c0.12,0.46,0.187,1.117-0.187,1.632c-0.293,0.404-0.618,0.607-1.763,0.74
		c-0.33,0.038-0.544,0.069-0.73,0.171c-0.008,0.003-0.016,0.005-0.025,0.005c-0.023-0.003-0.048-0.021-0.048-0.047
		c0-0.009,0.002-0.017,0.006-0.022c0.035-0.207-0.002-0.417-0.066-0.734c-0.227-1.131-0.134-1.502,0.157-1.906
		c0.376-0.515,1.022-0.655,1.496-0.681c0.086-0.005,0.159-0.006,0.225-0.007c0.216-0.004,0.325-0.006,0.42-0.136
		c0.064-0.088,0.094-0.199,0.084-0.32c-0.063-0.098-0.149-0.167-0.248-0.201c-0.149-0.047-0.237,0.008-0.421,0.136
		c-0.053,0.037-0.113,0.082-0.185,0.127c-0.408,0.263-0.802,0.395-1.171,0.395c-0.154,0-0.301-0.022-0.441-0.068
		c-0.474-0.155-0.765-0.4-1.248-1.447c-0.137-0.303-0.232-0.496-0.388-0.643c-0.013-0.012-0.018-0.031-0.013-0.049
		c0.006-0.018,0.021-0.03,0.04-0.032c0.214-0.028,0.401-0.129,0.692-0.291c0.662-0.373,1.055-0.518,1.405-0.518
		c0.144,0,0.289,0.025,0.455,0.079c0.608,0.198,0.939,0.769,1.111,1.212c0.03,0.08,0.055,0.15,0.075,0.21
		c0.07,0.205,0.105,0.308,0.26,0.359c0.103,0.034,0.218,0.027,0.329-0.02c0.075-0.091,0.115-0.195,0.115-0.3
		c0-0.162-0.087-0.226-0.26-0.356l-0.015-0.012c-0.047-0.035-0.102-0.077-0.162-0.125c-0.369-0.301-0.81-0.793-0.81-1.432
		c0-0.497,0.144-0.85,0.992-1.633c0.245-0.225,0.399-0.375,0.492-0.567c0.007-0.017,0.022-0.028,0.041-0.028
		s0.036,0.011,0.045,0.028c0.091,0.193,0.245,0.342,0.491,0.567c0.846,0.782,0.991,1.135,0.991,1.633
		c0,0.639-0.441,1.131-0.809,1.432c-0.067,0.052-0.125,0.096-0.178,0.137c-0.174,0.129-0.261,0.194-0.261,0.356
		c0,0.111,0.043,0.217,0.122,0.309c0.109,0.042,0.222,0.048,0.319,0.018c0.154-0.05,0.189-0.154,0.26-0.36l0.008-0.024
		c0.018-0.056,0.039-0.117,0.067-0.186c0.172-0.444,0.505-1.015,1.111-1.212c0.165-0.054,0.311-0.079,0.455-0.079
		c0.35,0,0.744,0.145,1.405,0.517c0.288,0.163,0.479,0.264,0.69,0.29c0.02,0.003,0.034,0.015,0.04,0.034
		C37.59,8.068,37.585,8.087,37.571,8.099"/>
</g>
</svg>
